# xmcd
# 
# Track frame offsets:
#     150
#     19823
#     31788
#     52374
#     64555
#     77323
#     90667
#     105425
#     117383
#     131475
#     144720
#     158265
#     173113
#     185167
#     199678
#     212236
#     225580
#     239361
#     252750
#     266705
#     279048
#     293072
# 
# Disc length: 4069
# 
# Revision: 1
# Processed by: cddbd v1.5.2PL0 Copyright (c) Steve Scherf et al.
# Submitted via: fre:ac v1.0.17
# 
DISCID=2d0fe316
DTITLE=John Steinbeck - The Grapes of Wrath [CD17)
DYEAR=1939
DGENRE=Audiobook
TTITLE0=Chapter 26.51
TTITLE1=Chapter 27.01
TTITLE2=Chapter 27.02
TTITLE3=Chapter 28.01
TTITLE4=Chapter 27.02
TTITLE5=Chapter 27.03
TTITLE6=Chapter 27.04
TTITLE7=Chapter 27.05
TTITLE8=Chapter 27.06
TTITLE9=Chapter 27.07
TTITLE10=Chapter 27.08
TTITLE11=Chapter 27.09
TTITLE12=Chapter 27.10
TTITLE13=Chapter 27.11
TTITLE14=Chapter 27.12
TTITLE15=Chapter 27.13
TTITLE16=Chapter 27.14
TTITLE17=Chapter 27.15
TTITLE18=Chapter 27.16
TTITLE19=Chapter 27.17
TTITLE20=Chapter 27.18
TTITLE21=Chapter 27.19
EXTD=The Grapes of Wrath by John Steinbeck\nread by Dylan Baker recorded books 18 CDs\nnational folk country
EXTT0=
EXTT1=
EXTT2=
EXTT3=
EXTT4=
EXTT5=
EXTT6=
EXTT7=
EXTT8=
EXTT9=
EXTT10=
EXTT11=
EXTT12=
EXTT13=
EXTT14=
EXTT15=
EXTT16=
EXTT17=
EXTT18=
EXTT19=
EXTT20=
EXTT21=
PLAYORDER=
